<svg width="71" height="71" viewBox="0 0 71 71" fill="none" xmlns="http://www.w3.org/2000/svg">
<path fill-rule="evenodd" clip-rule="evenodd" d="M41.0268 26.6561C41.77 26.6561 42.373 26.1096 42.373 25.4347V23.0499C42.373 22.3749 41.77 21.8285 41.0268 21.8285C40.2836 21.8285 39.6807 22.3749 39.6807 23.0499V25.4347C39.6807 26.1096 40.2836 26.6561 41.0268 26.6561Z" fill="#361D1E"/>
<path fill-rule="evenodd" clip-rule="evenodd" d="M39.4913 29.0695H42.5652C43.203 29.0695 43.7206 28.5296 43.7206 27.8626C43.7206 27.1963 43.203 26.6557 42.5652 26.6557H39.4913C38.8535 26.6557 38.3359 27.1963 38.3359 27.8626C38.3359 28.5296 38.8535 29.0695 39.4913 29.0695Z" fill="#361D1E"/>
<path fill-rule="evenodd" clip-rule="evenodd" d="M18.1421 26.6561C18.8852 26.6561 19.4882 26.1096 19.4882 25.4347V23.0499C19.4882 22.3749 18.8852 21.8285 18.1421 21.8285C17.3982 21.8285 16.7959 22.3749 16.7959 23.0499V25.4347C16.7959 26.1096 17.3982 26.6561 18.1421 26.6561Z" fill="#361D1E"/>
<path fill-rule="evenodd" clip-rule="evenodd" d="M16.6067 29.0695H19.6803C20.3188 29.0695 20.8358 28.5296 20.8358 27.8626C20.8358 27.1963 20.3188 26.6557 19.6803 26.6557H16.6067C15.9681 26.6557 15.4512 27.1963 15.4512 27.8626C15.4512 28.5296 15.9681 29.0695 16.6067 29.0695Z" fill="#361D1E"/>
<path fill-rule="evenodd" clip-rule="evenodd" d="M29.5861 29.0695C30.7756 29.0695 31.8944 28.7115 32.654 28.0876C33.0914 27.7287 33.0407 27.1831 32.5399 26.8691C32.0398 26.5551 31.2795 26.592 30.8421 26.951C30.5394 27.1997 30.0812 27.3423 29.5861 27.3423C29.091 27.3423 28.6328 27.1997 28.3301 26.951C27.8926 26.592 27.1324 26.5551 26.6323 26.8691C26.1315 27.1831 26.0808 27.7287 26.5182 28.0876C27.2778 28.7115 28.3959 29.0695 29.5861 29.0695Z" fill="#361D1E"/>
<path fill-rule="evenodd" clip-rule="evenodd" d="M11.6794 40.6843C6.15319 38.0386 3.35128 33.4868 3.35128 27.1545C3.35128 24.4612 3.67965 21.9154 4.32147 19.542C-0.266176 13.1018 0.41206 6.45653 1.24433 3.02948C1.61509 1.50101 3.04321 0.363998 4.79791 0.199509C5.47674 0.135956 6.15856 0.103912 6.82485 0.103912C12.7797 0.103912 16.6085 2.6049 18.0492 3.74939C21.6475 2.15576 25.6764 1.29005 29.7559 1.29005C33.8349 1.29005 37.8637 2.15576 41.4627 3.74939C42.9027 2.6049 46.7309 0.103912 52.6864 0.103912C53.3527 0.103912 54.0351 0.135956 54.7139 0.199509C56.468 0.363998 57.8968 1.50101 58.2675 3.02948C59.0992 6.45653 59.778 13.1018 55.1904 19.542C55.8322 21.9154 56.1606 24.4612 56.1606 27.1539C56.1606 33.4863 53.3581 38.0386 47.8319 40.6843C46.3691 41.3844 44.7261 41.9553 42.8687 42.4029C43.1965 44.1727 44.1804 45.9351 45.2156 47.7862C46.4061 49.9149 47.728 52.2867 48.1662 54.9826C49.7955 53.6074 50.3991 51.3585 51.2792 48.0719L51.2801 48.0686C52.0315 45.2629 52.883 42.0839 54.7665 39.0431C56.9684 35.489 60.1577 32.8246 64.5173 30.8977L64.5508 30.8833C66.6231 29.9871 69.1939 30.7791 70.2125 32.6232C70.2178 32.6334 70.2232 32.6435 70.2286 32.6531C71.2316 34.5084 70.3462 36.806 68.2834 37.7176C66.2762 38.6052 64.7024 39.6979 63.4719 41.0597C63.0743 41.4998 62.3525 41.5681 61.8599 41.2125C61.3673 40.8562 61.2909 40.2106 61.6891 39.7705C63.1322 38.1731 64.9567 36.9005 67.2679 35.8794C68.2243 35.4564 68.6303 34.3893 68.1569 33.5316C67.6852 32.6772 66.4911 32.3135 65.5329 32.7364C61.6056 34.4721 58.7404 36.8604 56.7719 40.0375C55.0393 42.8349 54.2262 45.871 53.5091 48.5493C52.441 52.5388 51.5837 55.7394 48.3006 57.4318C48.2767 57.8532 48.2271 58.2729 48.1573 58.6895C47.9979 59.6423 47.7184 60.5955 47.3101 61.5585C49.8403 60.9026 51.8231 59.7865 53.333 58.1741C55.6125 55.7404 56.4806 52.4998 57.3194 49.3659C57.8442 47.407 58.3869 45.3813 59.261 43.4966C59.5034 42.9733 60.1739 42.7254 60.759 42.9423C61.3441 43.1596 61.6211 43.7594 61.3787 44.2828C60.5739 46.0168 60.076 47.8759 59.5494 49.8439L59.5491 49.8447C58.6483 53.209 57.7168 56.6875 55.0901 59.4917C52.9085 61.8207 49.9508 63.2728 46.0676 63.9243C45.2204 65.2856 44.1326 66.6694 42.7982 68.0846C41.5886 69.368 39.8065 70.1039 37.9091 70.1039H21.6028C19.706 70.1039 17.9238 69.368 16.7136 68.0846C14.5971 65.8395 13.129 63.7214 12.2263 61.6097C12.0006 61.0805 12.2967 60.4877 12.8878 60.2858C13.4795 60.0834 14.1422 60.3483 14.3678 60.8775C15.1661 62.7446 16.5446 64.7243 18.4665 66.7623C19.2397 67.5826 20.383 68.0531 21.6028 68.0531H22.4106C19.3937 62.2485 20.2678 55.1204 20.3102 54.793C20.3824 54.2307 20.9514 53.8274 21.5801 53.8926C22.2094 53.9577 22.6601 54.4662 22.5873 55.0285C22.5747 55.1305 21.6613 62.6917 24.9796 68.0531H28.6096V54.911C28.6096 54.3449 29.1231 53.8857 29.7559 53.8857C30.3888 53.8857 30.9022 54.3449 30.9022 54.911V68.0531H34.5322C37.8649 62.6714 36.9347 55.107 36.9246 55.0291C36.8517 54.4662 37.3025 53.9577 37.9318 53.8926C38.5599 53.8274 39.1288 54.2307 39.2017 54.793C39.2447 55.1204 40.1181 62.2485 37.1013 68.0531H37.9091C39.1294 68.0531 40.2722 67.5826 41.0459 66.7623C43.9493 63.6824 45.5619 60.8204 45.9399 58.063C46.0103 57.5471 46.039 57.019 46.0222 56.5031C45.9279 53.6437 44.5237 51.1326 43.1654 48.7037L43.1627 48.6989C42.0687 46.7417 41.0253 44.875 40.628 42.8643C38.7229 43.1965 36.6165 43.4219 34.2791 43.5442C31.2718 43.6974 28.2418 43.7012 25.234 43.5442C22.8965 43.4219 20.7896 43.1965 18.8838 42.8643C18.4862 44.8766 17.4426 46.7448 16.3476 48.7037C14.8938 51.304 13.3911 53.9925 13.492 57.1124C13.5099 57.6785 13.012 58.1506 12.3791 58.1667C11.7468 58.1837 11.2185 57.7378 11.2 57.1717C11.083 53.5369 12.7899 50.4825 14.2961 47.7874L14.2968 47.7862C15.3315 45.9351 16.3154 44.1727 16.6432 42.4029C14.7858 41.9553 13.1427 41.3844 11.6794 40.6843ZM11.9784 7.49438C10.9927 7.00625 9.54306 6.48608 7.68686 6.3547C7.52566 7.83404 7.53462 9.69203 8.05404 11.6793C9.03975 10.3276 10.1855 9.07039 11.4673 7.93498C11.6357 7.78598 11.8052 7.63858 11.9784 7.49438ZM51.4585 11.679C50.8268 10.8122 50.1325 9.98868 49.3784 9.20949C48.819 8.63164 48.2267 8.07889 47.6052 7.55444C47.5933 7.54455 47.5815 7.5344 47.5697 7.52424C47.5579 7.5141 47.5461 7.50397 47.5342 7.4941C48.5199 7.0065 49.9695 6.4858 51.8251 6.35495C51.9863 7.83322 51.9773 9.69228 51.4585 11.679ZM54.4754 2.2392C53.8754 2.18312 53.2742 2.15482 52.6873 2.15482C48.228 2.15482 45.1461 3.77194 43.623 4.81442C44.3377 5.21123 45.0261 5.63847 45.6882 6.09403C47.0984 5.26517 49.4657 4.27289 52.7189 4.27289L52.8455 4.27342C53.4085 4.27823 53.8844 4.6478 53.9679 5.14607C54.3381 7.34853 54.4593 10.6602 53.0222 14.138C53.3243 14.6859 53.6043 15.2472 53.8635 15.8219C53.9144 15.9589 54.0521 16.2749 54.1588 16.5197C54.221 16.6622 54.2725 16.7806 54.2903 16.8254C57.2917 11.5286 56.7143 6.29323 56.0271 3.46486C55.8671 2.8037 55.2432 2.3113 54.4754 2.2392ZM45.0407 8.2593C51.1968 12.8597 53.8685 20.1506 53.8685 27.1537C53.8685 32.7491 51.5407 36.583 46.7513 38.8758C42.3863 40.965 37.2016 41.4291 32.3304 41.5701C32.291 41.5711 27.2221 41.5711 27.1827 41.5701C22.3097 41.428 17.1322 40.9677 12.7618 38.8758C7.97239 36.583 5.64453 32.7491 5.64453 27.1537C5.64453 20.6633 7.82133 14.1046 13.0454 9.42889C17.4163 5.51692 23.5927 3.34063 29.7565 3.34063C35.3514 3.34063 40.84 5.12011 45.0407 8.2593ZM5.03629 2.2392C4.26849 2.3113 3.64459 2.8037 3.48399 3.46486C2.79739 6.29323 2.22005 11.5286 5.22137 16.8259C5.27152 16.6993 5.55213 16.035 5.64527 15.8288C5.90498 15.252 6.18618 14.6881 6.48948 14.138C5.05241 10.6602 5.17361 7.34853 5.54377 5.14607C5.62735 4.6478 6.10319 4.27823 6.6662 4.27342L6.79277 4.27289C10.0454 4.27289 12.4133 5.26517 13.8235 6.09403C14.4838 5.64008 15.1698 5.2139 15.8821 4.81763C14.3489 3.77568 11.2521 2.15482 6.82442 2.15482C6.23753 2.15482 5.63631 2.18312 5.03629 2.2392Z" fill="#361D1E"/>
</svg>
