<svg width="71" height="71" viewBox="0 0 71 71" fill="none" xmlns="http://www.w3.org/2000/svg">
<path d="M13.8095 40.9852C14.497 41.2607 15.3361 41.0385 15.6842 40.4819C16.0336 39.9265 15.7572 39.2452 15.071 38.9596C14.8676 38.8745 10.0633 36.8114 8.80464 30.7151C8.7022 30.2141 8.19855 29.8299 7.57126 29.7754C6.92999 29.7177 6.35202 30.01 6.11755 30.4806C3.07283 36.6323 8.81434 43.7025 9.05983 44.0006C9.32917 44.3281 9.77542 44.5049 10.2273 44.5049C10.4938 44.5049 10.7646 44.4426 11.0045 44.3145C11.6486 43.9676 11.8239 43.2648 11.396 42.7434C11.361 42.7003 8.98551 39.7655 8.25298 36.3093C10.5614 39.634 13.6285 40.9115 13.8095 40.9852Z" fill="#F8633B"/>
<path d="M18.9393 44.9422C19.7044 44.8178 20.202 44.2111 20.0494 43.5883C19.8953 42.9654 19.1585 42.5602 18.385 42.6857C15.5471 43.1474 10.1778 45.663 10.1778 51.8732C10.1778 56.3794 11.3372 59.5054 12.2324 61.2438C9.13694 61.7332 7.34961 63.3185 7.34961 65.6891C7.34961 68.3578 10.3234 70.2943 14.4199 70.2943H15.8339C18.1783 70.2943 19.6207 68.8632 19.7763 68.7009C20.257 68.2001 20.1481 67.4759 19.5317 67.0844C18.9166 66.6918 18.0272 66.7827 17.5478 67.2825C17.5407 67.2906 16.8224 67.9917 15.8341 67.9917H14.4199C12.3116 67.9917 10.1778 67.2008 10.1778 65.6891C10.1778 65.1192 10.1778 63.3864 14.4199 63.3864C14.9389 63.3864 15.414 63.1527 15.6614 62.7807C15.9088 62.4089 15.8834 61.9553 15.6006 61.6018C15.5737 61.5685 13.0057 58.2883 13.0057 51.8731C13.0059 46.0348 18.7045 44.9836 18.9393 44.9422Z" fill="#F8633B"/>
<path d="M57.6189 61.2435C58.514 59.505 59.6735 56.3791 59.6735 51.8727C59.6735 45.6624 54.3043 43.1468 51.4664 42.6851C50.7 42.5619 49.9561 42.9637 49.802 43.5877C49.6492 44.2106 50.147 44.8174 50.9121 44.9416C51.1553 44.982 56.8455 45.9768 56.8455 51.8727C56.8455 58.288 54.2775 61.5681 54.2549 61.5957C53.9664 61.9492 53.9383 62.4039 54.1842 62.7782C54.4303 63.1523 54.9097 63.3862 55.4313 63.3862C59.6735 63.3862 59.6735 65.119 59.6735 65.6889C59.6735 67.2005 57.5397 67.9916 55.4313 67.9916H54.0173C53.0416 67.9916 52.3233 67.302 52.2949 67.2743C51.8127 66.7827 50.9318 66.6953 50.3195 67.0844C49.7029 67.4758 49.594 68.2 50.0749 68.7009C50.2305 68.8632 51.6728 70.2943 54.0173 70.2943H55.4313C59.5293 70.2943 62.5017 68.3578 62.5017 65.689C62.5017 63.3183 60.7143 61.7328 57.6189 61.2435Z" fill="#F8633B"/>
<path d="M44.4905 60.8062L46.9973 47.7417C47.1226 47.0891 46.6153 46.4726 45.8639 46.3636C45.1097 46.2558 44.4025 46.6953 44.2784 47.3466L41.7123 60.7153H41.5013C40.7388 60.7153 40.1225 61.2517 40.1225 61.9126C40.1225 62.5735 40.7388 63.1099 41.5013 63.1099H42.8801C47.0165 63.1099 47.0165 64.912 47.0165 65.5047C47.0165 67.0768 44.9358 67.8995 42.8801 67.8995H41.5013C39.2208 67.8995 37.3649 66.2878 37.3649 64.3074V47.5442C37.3649 46.8833 36.7486 46.3469 35.9861 46.3469C35.2236 46.3469 34.6074 46.8833 34.6074 47.5442V64.3074C34.6074 66.2878 32.7515 67.8995 30.4709 67.8995H29.0922C27.0364 67.8995 24.9558 67.0769 24.9558 65.5047C24.9558 64.912 24.9558 63.1099 29.0922 63.1099H30.4709C31.2334 63.1099 31.8497 62.5735 31.8497 61.9126C31.8497 61.2517 31.2334 60.7153 30.4709 60.7153H30.2599L27.694 47.3466C27.5714 46.6953 26.8613 46.2558 26.1085 46.3636C25.357 46.4726 24.8496 47.0891 24.9751 47.7417L27.4819 60.8062C24.1424 61.2074 22.1982 62.9004 22.1982 65.5047C22.1982 68.2801 25.0979 70.2941 29.0923 70.2941H30.4711C32.724 70.2941 34.7274 69.3506 35.9863 67.8958C37.2448 69.3506 39.2482 70.2941 41.5011 70.2941H42.8799C46.8758 70.2941 49.774 68.2801 49.774 65.5047C49.774 62.9004 47.8299 61.2074 44.4905 60.8062Z" fill="#F8633B"/>
<path fill-rule="evenodd" clip-rule="evenodd" d="M54.8325 0.294067C59.4108 0.294067 66.5387 5.12935 69.4975 10.2449C70.3886 11.783 70.9863 13.862 70.9863 15.4186C70.9863 18.6263 67.9668 21.2358 64.2555 21.2358C60.825 21.2358 59.3803 19.3512 58.1047 17.6871L58.1022 17.6839L52.3662 10.2473C51.9531 9.71199 52.12 8.98953 52.7391 8.63355C53.3585 8.27525 54.1944 8.42072 54.6063 8.95586L60.3477 16.3995C61.6103 18.0479 62.3589 18.9089 64.2555 18.9089C66.482 18.9089 68.294 17.3429 68.294 15.4186C68.294 14.2098 67.7986 12.5101 67.0905 11.2849C64.4371 6.69984 58.0254 2.62084 54.8323 2.62084C53.6828 2.62084 50.2662 4.93138 47.4164 7.32578C52.4739 12.4077 54.8323 20.9146 54.8323 29.3798C54.8323 40.1217 49.3724 44.5043 35.9862 44.5043C22.6 44.5043 17.14 40.1217 17.14 29.3798C17.14 20.9158 19.4984 12.4077 24.5559 7.32578C21.7061 4.93138 18.2883 2.62084 17.14 2.62084C13.9469 2.62084 7.53525 6.69984 4.88328 11.2849C4.17387 12.5101 3.67853 14.2098 3.67853 15.4186C3.67853 17.3429 5.49047 18.9089 7.71698 18.9089C9.5477 18.9089 10.323 18.0387 11.5333 16.4983L11.5454 16.483C11.6963 16.2915 11.8471 16.1001 12.0018 15.9108L17.3662 8.95586C17.7781 8.42059 18.6115 8.27525 19.2334 8.63355C19.8527 8.98953 20.0196 9.71213 19.6063 10.2473L14.2217 17.2278C14.0935 17.3853 13.9791 17.5301 13.8676 17.6713C13.8315 17.7169 13.7958 17.7621 13.76 17.8073C12.5592 19.335 11.0623 21.236 7.71714 21.236C4.0057 21.236 0.986328 18.6263 0.986328 15.4188C0.986328 13.862 1.58405 11.783 2.47519 10.2449C5.43399 5.12935 12.5619 0.294067 17.1401 0.294067C19.7396 0.294067 24.2128 3.77741 26.4597 5.67621C29.0563 3.753 32.2172 2.62097 35.9863 2.62097C39.7555 2.62097 42.9164 3.753 45.5131 5.67607C47.7598 3.77741 52.2331 0.294067 54.8325 0.294067ZM35.9859 42.1779C47.9114 42.1779 52.1397 38.8296 52.1397 29.3802C52.1397 17.2188 47.1441 4.94811 35.9859 4.94811C24.8276 4.94811 19.832 17.2188 19.832 29.3802C19.832 38.8296 24.0603 42.1779 35.9859 42.1779Z" fill="#F8633B"/>
<path fill-rule="evenodd" clip-rule="evenodd" d="M41.4383 34.9262C41.8093 34.9218 42.7201 34.7882 42.9533 34.4201C43.2995 33.8762 44.1204 33.6642 44.7899 33.9438C45.4595 34.2234 45.7226 34.8898 45.3776 35.4325C44.3237 37.0882 41.7301 37.1368 41.4383 37.1368C39.3207 37.1368 37.2726 36.1564 35.9841 34.7538C34.6955 36.1564 32.6475 37.1368 30.5299 37.1368C30.2408 37.1368 27.6758 37.0892 26.5987 35.4446C26.2442 34.9052 26.4978 34.2365 27.1632 33.9503C27.8286 33.664 28.6536 33.8686 29.0067 34.4079C29.2562 34.788 30.148 34.9218 30.5393 34.9262C32.128 34.9262 33.7778 33.8243 34.3724 32.5577C32.1307 32.1464 30.5299 30.9142 30.5299 29.3999C30.5299 27.5409 32.9256 26.0842 35.9841 26.0842C39.0425 26.0842 41.4383 27.5409 41.4383 29.3999C41.4383 30.9142 39.8375 32.1466 37.5957 32.5577C38.1916 33.8243 39.8416 34.9262 41.4383 34.9262ZM33.2598 29.3999C33.2598 29.8398 34.348 30.5051 35.9869 30.5051C37.6518 30.5051 38.7141 29.8508 38.7141 29.3999C38.7141 28.9491 37.6518 28.2947 35.9869 28.2947C34.348 28.2947 33.2598 28.9601 33.2598 29.3999Z" fill="#F8633B"/>
<path d="M41.2882 20.5577C42.4577 20.5577 43.4094 19.7312 43.4094 18.7156C43.4094 17.7 42.4577 16.8735 41.2882 16.8735C40.1187 16.8735 39.167 17.7 39.167 18.7156C39.167 19.7312 40.1187 20.5577 41.2882 20.5577Z" fill="#F8633B"/>
<path d="M28.5616 20.5577C29.7311 20.5577 30.6829 19.7312 30.6829 18.7156C30.6829 17.7 29.7311 16.8735 28.5616 16.8735C27.3922 16.8735 26.4404 17.7 26.4404 18.7156C26.4404 19.7312 27.3922 20.5577 28.5616 20.5577Z" fill="#F8633B"/>
</svg>
