<svg width="40" height="41" viewBox="0 0 40 41" fill="none" xmlns="http://www.w3.org/2000/svg">
<path fill-rule="evenodd" clip-rule="evenodd" d="M11 0.872559C12.1046 0.872559 13 1.72535 13 2.77732V4.68208H27V2.77732C27 1.72535 27.8954 0.872559 29 0.872559C30.1046 0.872559 31 1.72535 31 2.77732V4.72911C36.0533 5.20694 40 9.26747 40 14.2059V31.3487C40 36.6086 35.5228 40.8726 30 40.8726H10C4.47715 40.8726 0 36.6086 0 31.3487V14.2059C0 9.26747 3.94668 5.20694 9 4.72911V2.77732C9 1.72535 9.89543 0.872559 11 0.872559ZM4.34141 12.3011H35.6586C34.8349 10.0817 32.6124 8.49161 30 8.49161H10C7.38756 8.49161 5.16508 10.0817 4.34141 12.3011ZM36 16.1107H4V31.3487C4 34.5047 6.68629 37.063 10 37.063H30C33.3137 37.063 36 34.5047 36 31.3487V16.1107ZM8 20.8726C8 19.8206 8.89543 18.9678 10 18.9678H30C31.1046 18.9678 32 19.8206 32 20.8726C32 21.9245 31.1046 22.7773 30 22.7773H10C8.89543 22.7773 8 21.9245 8 20.8726ZM8 26.5868C8 25.5349 8.89543 24.6821 10 24.6821H30C31.1046 24.6821 32 25.5349 32 26.5868C32 27.6388 31.1046 28.4916 30 28.4916H10C8.89543 28.4916 8 27.6388 8 26.5868ZM8 32.3011C8 31.2492 8.89543 30.3964 10 30.3964H30C31.1046 30.3964 32 31.2492 32 32.3011C32 33.3531 31.1046 34.2059 30 34.2059H10C8.89543 34.2059 8 33.3531 8 32.3011Z" fill="black" fill-opacity="0.66"/>
</svg>
