<svg width="40" height="40" viewBox="0 0 40 40" fill="none" xmlns="http://www.w3.org/2000/svg">
<path fill-rule="evenodd" clip-rule="evenodd" d="M15 3.33333C21.4433 3.33333 26.6667 8.55668 26.6667 15C26.6667 21.4433 21.4433 26.6667 15 26.6667C13.5996 26.6667 12.2604 26.4207 11.0208 25.9709C10.4744 25.7727 9.86678 25.7284 9.27413 25.874C7.68231 26.2649 6.05728 26.513 4.41844 26.6143C5.03471 24.9906 5.24763 23.2353 5.03098 21.5013C4.98279 21.1156 4.85664 20.7774 4.70678 20.4974C3.83077 18.8611 3.33333 16.9911 3.33333 15C3.33333 8.55668 8.55668 3.33333 15 3.33333ZM30 15C30 6.71573 23.2843 0 15 0C6.71573 0 0 6.71573 0 15C0 17.5278 0.626631 19.9142 1.73436 22.0074C1.90725 23.5504 1.58687 25.1136 0.812219 26.4693L0.74386 26.5889C-0.124667 28.1088 0.972805 30 2.72339 30C5.16982 30 7.60221 29.7085 9.96987 29.1353C11.5444 29.6956 13.2384 30 15 30C23.2843 30 30 23.2843 30 15ZM33.9254 13.7635C33.2218 14.357 33.1326 15.4085 33.7261 16.1121C35.5618 18.2883 36.6667 21.0963 36.6667 24.1667C36.6667 26.3043 36.1315 28.312 35.1891 30.0679C35.038 30.3495 34.9126 30.6873 34.8641 31.0708C34.6259 32.9553 34.8697 34.8642 35.5653 36.6204C33.7548 36.5185 31.9593 36.2488 30.202 35.8156C29.6088 35.6694 28.9996 35.7135 28.4513 35.9135C27.1171 36.4003 25.6748 36.6667 24.1667 36.6667C21.0963 36.6667 18.2883 35.5618 16.1121 33.7261C15.4085 33.1326 14.357 33.2218 13.7635 33.9254C13.17 34.6289 13.2593 35.6804 13.9628 36.2739C16.7178 38.5979 20.2806 40 24.1667 40C26.0372 40 27.8353 39.6749 29.5054 39.0769C32.0226 39.6888 34.6091 40 37.2105 40C38.9905 40 40.1065 38.0771 39.2233 36.5316L39.1507 36.4045C38.3134 34.9391 37.969 33.2485 38.1601 31.5807C39.3351 29.3672 40 26.8421 40 24.1667C40 20.2807 38.5979 16.7178 36.2739 13.9628C35.6804 13.2593 34.6289 13.17 33.9254 13.7635ZM8.33333 16.6667C9.25381 16.6667 10 15.9205 10 15C10 14.0795 9.25381 13.3333 8.33333 13.3333C7.41286 13.3333 6.66667 14.0795 6.66667 15C6.66667 15.9205 7.41286 16.6667 8.33333 16.6667ZM16.6667 15C16.6667 15.9205 15.9205 16.6667 15 16.6667C14.0795 16.6667 13.3333 15.9205 13.3333 15C13.3333 14.0795 14.0795 13.3333 15 13.3333C15.9205 13.3333 16.6667 14.0795 16.6667 15ZM21.6667 16.6667C22.5871 16.6667 23.3333 15.9205 23.3333 15C23.3333 14.0795 22.5871 13.3333 21.6667 13.3333C20.7462 13.3333 20 14.0795 20 15C20 15.9205 20.7462 16.6667 21.6667 16.6667Z" fill="black" fill-opacity="0.66"/>
</svg>
