<?xml version="1.0" standalone="no"?><!DOCTYPE svg PUBLIC "-//W3C//DTD SVG 1.1//EN" "http://www.w3.org/Graphics/SVG/1.1/DTD/svg11.dtd"><svg t="1697769507069" class="icon" viewBox="0 0 1334 1024" version="1.1" xmlns="http://www.w3.org/2000/svg" p-id="6440" xmlns:xlink="http://www.w3.org/1999/xlink" width="260.546875" height="200"><path d="M651.326061 24.700121c5.492364-1.551515 11.201939-1.830788 16.787394-0.930909l4.15806 0.930909 610.428121 171.163152c15.484121 4.344242 26.530909 17.687273 28.113455 33.388606l0.217212 3.971879v81.051151c0 15.297939-8.936727 29.013333-22.621091 35.281455l-3.816727 1.520484-87.00897 29.168485a38.787879 38.787879 0 0 1-28.392727-72.083394l3.723636-1.458424 60.540121-20.324848v-23.769212L661.814303 102.337939 90.14303 262.609455v23.365818l571.640243 182.985697 420.864-134.671515a38.787879 38.787879 0 0 1 47.352242 21.379878l1.396364 3.723637a38.787879 38.787879 0 0 1-21.410909 47.352242l-3.723637 1.396364-432.624485 138.519272a38.787879 38.787879 0 0 1-18.990545 1.179152l-4.654545-1.179152-610.428122-195.428848a38.787879 38.787879 0 0 1-26.748121-32.768l-0.217212-4.189091V233.223758c0-16.073697 9.867636-30.316606 24.513939-36.088243l3.785697-1.272242L651.326061 24.700121z" fill="#6750F1" p-id="6441"></path><path d="M987.384242 389.523394c20.076606 0 36.615758 15.266909 38.570667 34.816l0.217212 3.971879v227.110788c0 10.767515-4.499394 21.038545-12.381091 28.392727-87.133091 81.113212-220.625455 129.210182-362.123636 129.210182-141.560242 0-275.052606-48.09697-362.185697-129.241212a38.787879 38.787879 0 0 1-12.101818-23.800243l-0.279273-4.561454v-137.619394a38.787879 38.787879 0 0 1 77.389576-3.971879l0.186182 3.971879v120.056242l3.165091 2.699636c69.787152 56.940606 171.721697 92.19103 281.134545 94.735516l12.660364 0.155151c114.191515 0 221.308121-35.746909 293.794909-94.921697l3.13406-2.668606v-209.547636c0-20.076606 15.297939-36.615758 34.847031-38.570667l3.971878-0.217212z" fill="#6750F1" p-id="6442"></path><path d="M644.685576 194.435879a38.787879 38.787879 0 0 1 43.659636-28.237576l3.878788 0.837818 406.931394 109.226667c15.670303 4.220121 26.903273 17.625212 28.547879 33.450667l0.186182 4.033939v358.741333a38.787879 38.787879 0 0 1-77.358546 3.971879l-0.217212-3.971879V343.443394L672.116364 241.974303a38.787879 38.787879 0 0 1-28.237576-43.659636l0.806788-3.878788z" fill="#6750F1" p-id="6443"></path><path d="M1089.101576 654.056727a99.824485 99.824485 0 1 0 0 199.64897 99.824485 99.824485 0 0 0 0-199.64897z m0 77.575758a22.248727 22.248727 0 1 1 0 44.497454 22.248727 22.248727 0 0 1 0-44.497454z" fill="#6750F1" p-id="6444"></path><path d="M1154.327273 806.012121l33.574788 142.429091a38.787879 38.787879 0 0 1-33.854061 47.507394l-3.878788 0.186182H1028.033939a38.787879 38.787879 0 0 1-38.477575-43.845818l0.713697-3.816728 33.574787-142.42909 65.225697 15.36 65.225697-15.391031z m-65.225697 61.44l-12.070788 51.106909h24.110545l-12.039757-51.106909z" fill="#6750F1" p-id="6445"></path></svg>