<?xml version="1.0" standalone="no"?><!DOCTYPE svg PUBLIC "-//W3C//DTD SVG 1.1//EN" "http://www.w3.org/Graphics/SVG/1.1/DTD/svg11.dtd"><svg t="1697769230222" class="icon" viewBox="0 0 1024 1024" version="1.1" xmlns="http://www.w3.org/2000/svg" p-id="4196" id="mx_n_1697769230223" xmlns:xlink="http://www.w3.org/1999/xlink" width="200" height="200"><path d="M511.773949 64.85436a294.60093 294.60093 0 0 1 294.884668 293.952386c0 2.188835 0.091201 4.418203 0.243204 6.586771 3.202184 46.614071-6.455036 101.274136-28.708188 162.551373-19.78058 54.477662-49.502117 114.113273-88.364065 177.244939C627.478181 806.626102 555.347973 894.980033 509.291244 947.714735c-45.144715-47.110612-114.984753-126.597737-175.512112-223.321935-37.899267-60.578026-67.073595-119.970432-86.732573-176.545728-22.577424-64.975962-32.761585-126.881475-30.268746-183.973579 0.101335-2.330704 0.121602-4.701941 0.060801-7.093445-1.976031-74.845985 26.519353-146.378317 80.105268-201.393055a300.275686 300.275686 0 0 1 214.830067-90.532633m0-64.85436C313.542545 0 146.887107 160.463873 152.034922 358.482474v2.563774c-12.302061 281.883395 240.650209 561.750225 329.520949 651.036439a40.442774 40.442774 0 0 0 58.774264-1.520024c87.867524-97.869283 347.923374-409.261412 331.365245-649.627883 0-0.780279-0.081068-1.560558-0.081068-2.340837C870.945502 160.443606 710.106689 0 511.773949 0z" fill="#6750F1" p-id="4197"></path><path d="M512.321158 204.2507a161.12255 161.12255 0 1 1-113.951137 47.201814 160.109201 160.109201 0 0 1 113.951137-47.201814m0-64.85436c-124.824376 0-225.97691 101.182935-225.97691 225.97691s101.182935 225.97691 225.97691 225.976911 225.97691-101.182935 225.976911-225.976911-101.182935-225.97691-225.976911-225.97691z" fill="#6750F1" p-id="4198"></path></svg>